<?xml version="1.0" encoding="utf-8"?>
<!-- Generator: Adobe Illustrator 16.0.0, SVG Export Plug-In . SVG Version: 6.00 Build 0)  -->
<!DOCTYPE svg PUBLIC "-//W3C//DTD SVG 1.1//EN" "http://www.w3.org/Graphics/SVG/1.1/DTD/svg11.dtd">
<svg version="1.1" id="Layer_1" xmlns="http://www.w3.org/2000/svg" xmlns:xlink="http://www.w3.org/1999/xlink" x="0px" y="0px"
	 width="40px" height="40px" viewBox="0 0 40 40" enable-background="new 0 0 40 40" xml:space="preserve">
<rect x="9.583" y="7.5" fill="#FFFFFF" width="20.833" height="25"/>
<path fill="#FF594F" d="M2,25.162V14.81c0-1.211,0.431-2.254,1.287-3.11l8.42-8.416C12.564,2.427,13.605,2,14.817,2H25.17
	c1.211,0,2.254,0.427,3.11,1.284l8.426,8.418C37.563,12.559,38,13.599,38,14.81v10.353c0,1.213-0.438,2.254-1.294,3.111
	l-8.423,8.428C27.426,37.561,26.381,38,25.17,38H14.817c-1.212,0-2.254-0.439-3.11-1.299l-8.42-8.424C2.431,27.42,2,26.375,2,25.162
	L2,25.162z M11.818,11.759l-0.016,0.017c-1.041,1.04-1.041,2.737,0,3.777l4.436,4.436l-4.436,4.436c-1.041,1.041-1.04,2.738,0,3.777
	l0.017,0.018c1.04,1.039,2.737,1.039,3.778,0l4.434-4.436l4.436,4.436c1.04,1.039,2.738,1.039,3.777,0l0.018-0.018
	c1.039-1.039,1.039-2.736,0-3.777l-4.436-4.436l4.436-4.436c1.039-1.04,1.041-2.737,0-3.777l-0.017-0.017
	c-1.04-1.04-2.737-1.04-3.778,0l-4.436,4.434l-4.435-4.434C14.557,10.719,12.859,10.719,11.818,11.759z"/>
</svg>
