<?xml version="1.0" ?><!DOCTYPE svg  PUBLIC '-//W3C//DTD SVG 1.1//EN'  'http://www.w3.org/Graphics/SVG/1.1/DTD/svg11.dtd'><svg enable-background="new 0 0 40 40" version="1.1" viewBox="0 0 40 40" xml:space="preserve" xmlns="http://www.w3.org/2000/svg" xmlns:xlink="http://www.w3.org/1999/xlink"><g id="Outdoors"><g id="TNT_5_"/><g id="Bicycle_14_"/><g id="Globe_3_"/><g id="Direction_1_"/><g id="Pin_4_"/><g id="Location_2_"/><g id="Map_5_"/><g id="Cloud_2_"/><g id="Wind_3_"/><g id="Cloudy"/><g id="Partly_Cloudy_2_"/><g id="Storm"/><g id="Snow_3_"/><g id="Rain_3_"/><g id="Radar_8_"/><g id="Helmet_04"/><g id="Helmet_03"/><g id="Helmet_02"/><g id="Helmet_01"/><g id="Rocket_6_"/><g id="Compass_3_"/><g id="Hatchet_5_"><g id="Hatchet"><g><path clip-rule="evenodd" d="M18.3,13.6l-9.2,9.2l3.5,3.5l9.2-9.2L18.3,13.6z M7.7,24.2      l3.5,3.5l0.7-0.7l-3.5-3.5L7.7,24.2z" fill="#ECF0F1" fill-rule="evenodd"/></g></g><g id="Hatchet_1_"><g><path clip-rule="evenodd" d="M9.1,22.8l-0.7,0.7l3.5,3.5l0.7-0.7L9.1,22.8z M7,24.9l3.5,3.5      l0.7-0.7l-3.5-3.5L7,24.9z" fill="#E74C3C" fill-rule="evenodd"/></g></g><g id="Hatchet_2_"><g><polygon clip-rule="evenodd" fill="#211F1F" fill-rule="evenodd" points="22.8,8.6 17.4,13.8 20.4,19.7 27.3,13.3     "/></g></g><g id="Hatchet_3_"><g><polygon clip-rule="evenodd" fill="#302E2E" fill-rule="evenodd" points="22.6,6.6 18.3,10.8 27.6,26.3 36.6,18.3     "/></g></g><path d="M8.4,33.4c-2.3-0.5-4.5-2.7-5-4.9L7,24.9l3.5,3.5L8.4,33.4L8.4,33.4z" fill="#1ABC9C"/><g><path d="M5.4,29.5L9,25.9l0.7-0.7l0.7-0.7l0.7-0.7l8.7-8.7l-1.5-1.5l-9.2,9.2l-0.7,0.7l-0.7,0.7     L7,24.9l-3.6,3.6c0.4,2.1,2.4,4.2,4.6,4.8C6.7,32.4,5.7,30.9,5.4,29.5z" fill="#211F1F" opacity="0.2"/></g></g><g id="Wigwam_6_"/><g id="Lifesaver"/><g id="Umbrella_4_"/><g id="Drops_4_"/><g id="Snowflake_10_"/><g id="Tree_Alt_3_"/><g id="Tree_3_"/><g id="Current_2_"/><g id="Electricity_2_"/><g id="Fire"/><g id="Moon_2_"/><g id="Sun_4_"/></g><g id="Lockup"/></svg>