<?xml version="1.0" ?><!DOCTYPE svg  PUBLIC '-//W3C//DTD SVG 1.1//EN'  'http://www.w3.org/Graphics/SVG/1.1/DTD/svg11.dtd'><svg enable-background="new 0 0 40 40" version="1.1" viewBox="0 0 40 40" xml:space="preserve" xmlns="http://www.w3.org/2000/svg" xmlns:xlink="http://www.w3.org/1999/xlink"><g id="Web"><g id="Tabs_3_"/><g id="Male_2_"/><g id="Female_1_"/><g id="Unshare_2_"/><g id="Share_2_"/><g id="More_4_"/><g id="New_Window_3_"/><g id="Edit_5_"/><g id="Checked_3_"/><g id="Unchecked_2_"/><g id="Menu_Alt_1_"/><g id="Menu_6_"/><g id="Hand_Cursor_2_"/><g id="Type_Cursor_2_"/><g id="Tag_Minus_4_"/><g id="Tag_Plus_4_"/><g id="Tag_2_"/><g id="Options_2_"/><g id="List_Alt_2_"/><g id="List_2_"/><g id="Grid_Small"/><g id="Grid_Big"/><g id="Log_Out_3_"/><g id="Log_In_3_"/><g id="Upload_8_"/><g id="Download_8_"/><g id="Export_1_"/><g id="Import_1_"/><g id="Userlist"/><g id="User_Star"/><g id="User_Down"/><g id="User_Up"/><g id="User_Minus"/><g id="User_Plus"/><g id="Like_3_"/><g id="Dislike_3_"/><g id="Unlock"/><g id="Lock"/><g id="More_Windows_9_"/><g id="External_Link_9_"/><g id="Grid_System"/><g id="Image_5_"/><g id="Table_3_"><g id="Table"><path clip-rule="evenodd" d="M33,12c0-1.7-1.3-3-3-3H9c-1.7,0-3,1.3-3,3v17c0,1.7,1.3,3,3,3     h21c1.7,0,3-1.3,3-3V12z" fill="#2C3E50" fill-rule="evenodd"/></g><g id="Table_1_"><path clip-rule="evenodd" d="M24,11v3h7v-3H24z M16,14h7v-3h-7V14z M8,14h7v-3H8V14z" fill="#1ABC9C" fill-rule="evenodd"/></g><rect clip-rule="evenodd" fill="#ECF0F1" fill-rule="evenodd" height="3" width="7" x="16" y="23"/><rect clip-rule="evenodd" fill="#ECF0F1" fill-rule="evenodd" height="3" width="7" x="16" y="27"/><rect clip-rule="evenodd" fill="#ECF0F1" fill-rule="evenodd" height="3" width="7" x="16" y="19"/><rect clip-rule="evenodd" fill="#ECF0F1" fill-rule="evenodd" height="3" width="7" x="16" y="15"/><rect clip-rule="evenodd" fill="#ECF0F1" fill-rule="evenodd" height="3" width="7" x="8" y="15"/><rect clip-rule="evenodd" fill="#ECF0F1" fill-rule="evenodd" height="3" width="7" x="8" y="23"/><rect clip-rule="evenodd" fill="#ECF0F1" fill-rule="evenodd" height="3" width="7" x="8" y="19"/><rect clip-rule="evenodd" fill="#ECF0F1" fill-rule="evenodd" height="3" width="7" x="24" y="15"/><rect clip-rule="evenodd" fill="#ECF0F1" fill-rule="evenodd" height="3" width="7" x="24" y="19"/><rect clip-rule="evenodd" fill="#ECF0F1" fill-rule="evenodd" height="3" width="7" x="24" y="27"/><rect clip-rule="evenodd" fill="#ECF0F1" fill-rule="evenodd" height="3" width="7" x="8" y="27"/><rect clip-rule="evenodd" fill="#ECF0F1" fill-rule="evenodd" height="3" width="7" x="24" y="23"/></g><g id="Embed_Close_2_"/><g id="Embed_2_"/><g id="QR_2_"/><g id="Translate_6_"/><g id="Global_7_"/><g id="Trash_4_"/><g id="Nut_3_"/><g id="Gauge"/><g id="Sliders_3_"/><g id="Tools"/><g id="Gears_3_"/><g id="Gear_2_"/><g id="Arrow_Keys"/><g id="Ban_2_"/><g id="Warning"/><g id="Remove_2_"/><g id="OK_2_"/><g id="Search_4_"/><g id="Zoom_In_5_"/><g id="Zoom_Out_5_"/><g id="Social_Network_5_"/><g id="Anchor_2_"/><g id="Link_4_"/><g id="Cloud_Camera_6_"/><g id="Cloud_Up_4_"/><g id="Cloud_Down_4_"/><g id="Cloud_Tunes"/><g id="Broadcast_4_"/><g id="Filter_3_"/><g id="Paper_Plane_3_"/><g id="Star_Fill_2_"/><g id="Star_Stroke_3_"/><g id="Heart_Fill_2_"/><g id="Heart_Stroke_1_"/><g id="Chat_Convo_Alt"/><g id="Chat_Type_Alt"/><g id="Chat_Alert_Alt"/><g id="Chat_Alt"/><g id="Chat_Convo"/><g id="Chat_Type"/><g id="Chat_Alert"/><g id="Chat"/><g id="Home_3_"/></g><g id="Lockup"/></svg>