<?xml version="1.0" encoding="utf-8"?>
<!-- Generator: Adobe Illustrator 16.0.0, SVG Export Plug-In . SVG Version: 6.00 Build 0)  -->
<!DOCTYPE svg PUBLIC "-//W3C//DTD SVG 1.1//EN" "http://www.w3.org/Graphics/SVG/1.1/DTD/svg11.dtd">
<svg version="1.1" id="Layer_1" xmlns="http://www.w3.org/2000/svg" xmlns:xlink="http://www.w3.org/1999/xlink" x="0px" y="0px"
	 width="200px" height="200px" viewBox="0 0 200 200" enable-background="new 0 0 200 200" xml:space="preserve">
<g>
	<g>
		<defs>
			<rect id="SVGID_1_" x="-17.625" y="66.641" width="155.123" height="152.359"/>
		</defs>
		<clipPath id="SVGID_2_">
			<use xlink:href="#SVGID_1_"  overflow="visible"/>
		</clipPath>
		<polygon clip-path="url(#SVGID_2_)" fill="#636463" points="1.765,85.687 37.515,85.687 114.168,199.956 1.765,199.956 		"/>
	</g>
</g>
<g>
	<g>
		<defs>
			<rect id="SVGID_3_" x="-17.625" y="66.641" width="155.123" height="152.359"/>
		</defs>
		<clipPath id="SVGID_4_">
			<use xlink:href="#SVGID_3_"  overflow="visible"/>
		</clipPath>
		<rect x="1.765" y="88.143" clip-path="url(#SVGID_4_)" fill="#ABABAB" width="38.781" height="19.938"/>
	</g>
</g>
<g>
	<g>
		<defs>
			<rect id="SVGID_5_" x="-17.625" y="66.641" width="155.123" height="152.359"/>
		</defs>
		<clipPath id="SVGID_6_">
			<use xlink:href="#SVGID_5_"  overflow="visible"/>
		</clipPath>
		<polygon clip-path="url(#SVGID_6_)" fill="#ABABAB" points="52.537,108.08 42.968,108.08 42.968,93.817 		"/>
	</g>
</g>
<g>
	<g>
		<defs>
			<rect id="SVGID_7_" x="-17.625" y="66.641" width="155.123" height="152.359"/>
		</defs>
		<clipPath id="SVGID_8_">
			<use xlink:href="#SVGID_7_"  overflow="visible"/>
		</clipPath>
		<polygon clip-path="url(#SVGID_8_)" fill="#ABABAB" points="18.731,110.535 54.184,110.535 57.512,115.497 57.512,130.398 
			18.731,130.398 		"/>
	</g>
</g>
<g>
	<g>
		<defs>
			<rect id="SVGID_9_" x="-17.625" y="66.641" width="155.123" height="152.359"/>
		</defs>
		<clipPath id="SVGID_10_">
			<use xlink:href="#SVGID_9_"  overflow="visible"/>
		</clipPath>
		<polygon clip-path="url(#SVGID_10_)" fill="#ABABAB" points="67.508,130.398 59.936,130.398 59.936,119.109 		"/>
	</g>
</g>
<g>
	<g>
		<defs>
			<rect id="SVGID_11_" x="-17.625" y="66.641" width="155.123" height="152.359"/>
		</defs>
		<clipPath id="SVGID_12_">
			<use xlink:href="#SVGID_11_"  overflow="visible"/>
		</clipPath>
		<rect x="1.765" y="110.535" clip-path="url(#SVGID_12_)" fill="#ABABAB" width="14.542" height="19.863"/>
	</g>
</g>
<g>
	<g>
		<defs>
			<rect id="SVGID_13_" x="-17.625" y="66.641" width="155.123" height="152.359"/>
		</defs>
		<clipPath id="SVGID_14_">
			<use xlink:href="#SVGID_13_"  overflow="visible"/>
		</clipPath>
		<rect x="1.765" y="132.854" clip-path="url(#SVGID_14_)" fill="#ABABAB" width="38.781" height="19.938"/>
	</g>
</g>
<g>
	<g>
		<defs>
			<rect id="SVGID_15_" x="-17.625" y="66.641" width="155.123" height="152.359"/>
		</defs>
		<clipPath id="SVGID_16_">
			<use xlink:href="#SVGID_15_"  overflow="visible"/>
		</clipPath>
		<polygon clip-path="url(#SVGID_16_)" fill="#ABABAB" points="42.968,132.854 69.154,132.854 81.75,152.791 42.968,152.791 		"/>
	</g>
</g>
<g>
	<g>
		<defs>
			<rect id="SVGID_17_" x="-17.625" y="66.641" width="155.123" height="152.359"/>
		</defs>
		<clipPath id="SVGID_18_">
			<use xlink:href="#SVGID_17_"  overflow="visible"/>
		</clipPath>
		<polygon clip-path="url(#SVGID_18_)" fill="#ABABAB" points="59.936,155.246 84.175,155.246 97.5,175.107 59.936,175.107 		"/>
	</g>
</g>
<g>
	<g>
		<defs>
			<rect id="SVGID_19_" x="-17.625" y="66.641" width="155.123" height="152.359"/>
		</defs>
		<clipPath id="SVGID_20_">
			<use xlink:href="#SVGID_19_"  overflow="visible"/>
		</clipPath>
		<rect x="18.731" y="155.246" clip-path="url(#SVGID_20_)" fill="#ABABAB" width="38.78" height="19.861"/>
	</g>
</g>
<g>
	<g>
		<defs>
			<rect id="SVGID_21_" x="-17.625" y="66.641" width="155.123" height="152.359"/>
		</defs>
		<clipPath id="SVGID_22_">
			<use xlink:href="#SVGID_21_"  overflow="visible"/>
		</clipPath>
		<rect x="1.765" y="155.246" clip-path="url(#SVGID_22_)" fill="#ABABAB" width="14.542" height="19.861"/>
	</g>
</g>
<g>
	<g>
		<defs>
			<rect id="SVGID_23_" x="-17.625" y="66.641" width="155.123" height="152.359"/>
		</defs>
		<clipPath id="SVGID_24_">
			<use xlink:href="#SVGID_23_"  overflow="visible"/>
		</clipPath>
		<rect x="1.765" y="177.563" clip-path="url(#SVGID_24_)" fill="#ABABAB" width="38.781" height="19.938"/>
	</g>
</g>
<g>
	<g>
		<defs>
			<rect id="SVGID_25_" x="-17.625" y="66.641" width="155.123" height="152.359"/>
		</defs>
		<clipPath id="SVGID_26_">
			<use xlink:href="#SVGID_25_"  overflow="visible"/>
		</clipPath>
		<rect x="42.968" y="177.563" clip-path="url(#SVGID_26_)" fill="#ABABAB" width="38.781" height="19.938"/>
	</g>
</g>
<g>
	<g>
		<defs>
			<rect id="SVGID_27_" x="-17.625" y="66.641" width="155.123" height="152.359"/>
		</defs>
		<clipPath id="SVGID_28_">
			<use xlink:href="#SVGID_27_"  overflow="visible"/>
		</clipPath>
		<polygon clip-path="url(#SVGID_28_)" fill="#ABABAB" points="84.174,177.563 99.146,177.563 112.521,197.501 84.174,197.501 		"/>
	</g>
</g>
<path fill="#F9B479" d="M118.107,199.956"/>
<path fill="#F9B479" d="M41.454,85.687"/>
<g>
	<polygon fill="#636463" points="115.672,199.956 112.996,199.956 36.265,85.687 38.941,85.687 	"/>
</g>
<rect x="-0.284" y="85.687" fill="#636463" width="2.25" height="114.269"/>
<g>
	<g>
		<defs>
			<polygon id="SVGID_29_" points="48.874,-1 202.374,20.964 180.012,171.731 26.511,149.766 			"/>
		</defs>
		<clipPath id="SVGID_30_">
			<use xlink:href="#SVGID_29_"  overflow="visible"/>
		</clipPath>
		<path clip-path="url(#SVGID_30_)" fill="#0EB89A" d="M109.852,71.934c-1.559,2.518-1.233,6.663,0.675,9.369
			c1.562,2.214,4.626,3.406,6.803,2.29c1.467-0.814,2.197-2.404,2.506-4.069c0.308-1.666-0.021-3.445-0.387-5.016
			c-0.693-3.35-2.062-6.604-3.893-9.728C114.765,67.864,111.664,69.247,109.852,71.934z"/>
	</g>
</g>
<g>
	<g>
		<defs>
			<polygon id="SVGID_31_" points="48.874,-1 202.374,20.964 180.012,171.731 26.511,149.766 			"/>
		</defs>
		<clipPath id="SVGID_32_">
			<use xlink:href="#SVGID_31_"  overflow="visible"/>
		</clipPath>
		<path clip-path="url(#SVGID_32_)" fill="#0EB89A" d="M130.625,68.786c-0.715,2.667,0.019,5.809,2.485,6.68
			c1.406,0.681,3.218,0.359,4.723-0.663c1.463-0.814,2.792-2.082,3.909-3.388c2.236-2.612,4.125-5.716,5.376-8.934
			c-3.062,1.174-6.05-0.435-9.173-0.132C134.537,63.03,131.453,65.491,130.625,68.786z"/>
	</g>
</g>
<g>
	<g>
		<defs>
			<polygon id="SVGID_33_" points="48.874,-1 202.374,20.964 180.012,171.731 26.511,149.766 			"/>
		</defs>
		<clipPath id="SVGID_34_">
			<use xlink:href="#SVGID_33_"  overflow="visible"/>
		</clipPath>
		<path clip-path="url(#SVGID_34_)" fill="#0EB89A" d="M161.847,53.267c1.433,0.633,3.229,0.248,4.697-0.825
			c1.432-0.864,2.718-2.177,3.785-3.521c2.142-2.687,3.917-5.855,5.055-9.114c-3.021,1.279-6.063-0.226-9.173,0.185
			c-3.108,0.411-6.133,3.186-6.843,6.505C158.508,49.368,159.351,52.482,161.847,53.267z"/>
	</g>
</g>
<g>
	<g>
		<defs>
			<polygon id="SVGID_35_" points="48.874,-1 202.374,20.964 180.012,171.731 26.511,149.766 			"/>
		</defs>
		<clipPath id="SVGID_36_">
			<use xlink:href="#SVGID_35_"  overflow="visible"/>
		</clipPath>
		<path clip-path="url(#SVGID_36_)" fill="#0EB89A" d="M155.853,82.349c-2.279-2.25-6.055-3.217-9.287-1.969
			c-2.532,0.92-4.641,3.398-4.131,5.824c0.424,1.558,1.759,2.818,3.19,3.45c1.644,0.663,3.349,0.907,5.055,1.151
			c3.44,0.279,7.19-0.041,10.606-1.048C158.306,87.833,157.919,84.57,155.853,82.349z"/>
	</g>
</g>
<g>
	<g>
		<defs>
			<polygon id="SVGID_37_" points="48.874,-1 202.374,20.964 180.012,171.731 26.511,149.766 			"/>
		</defs>
		<clipPath id="SVGID_38_">
			<use xlink:href="#SVGID_37_"  overflow="visible"/>
		</clipPath>
		<path clip-path="url(#SVGID_38_)" fill="#0EB89A" d="M159.273,64.71c-0.83,2.661,0.228,5.806,2.479,6.769
			c1.431,0.634,3.229,0.249,4.663-0.614c1.434-0.864,2.718-2.178,3.787-3.522c2.142-2.688,3.917-5.854,5.268-9.083
			c-3.022,1.278-6.031-0.435-9.141-0.024C163.191,58.854,160.166,61.63,159.273,64.71z"/>
	</g>
</g>
<g>
	<g>
		<defs>
			<polygon id="SVGID_39_" points="48.874,-1 202.374,20.964 180.012,171.731 26.511,149.766 			"/>
		</defs>
		<clipPath id="SVGID_40_">
			<use xlink:href="#SVGID_39_"  overflow="visible"/>
		</clipPath>
		<path clip-path="url(#SVGID_40_)" fill="#0EB89A" d="M141.412,38.156c1.426-0.606,2.543-1.912,3.063-3.539
			c0.521-1.628,0.615-3.331,0.502-5.073c-0.233-3.482-1.139-6.87-2.297-10.087c-1.385,2.763-4.622,3.691-6.607,6.132
			c-1.985,2.442-2.505,6.435-0.848,9.312C136.112,37.21,139.06,39.026,141.412,38.156z"/>
	</g>
</g>
<g>
	<g>
		<defs>
			<polygon id="SVGID_41_" points="48.874,-1 202.374,20.964 180.012,171.731 26.511,149.766 			"/>
		</defs>
		<clipPath id="SVGID_42_">
			<use xlink:href="#SVGID_41_"  overflow="visible"/>
		</clipPath>
		<path clip-path="url(#SVGID_42_)" fill="#0EB89A" d="M104.774,45.39c-0.155,3.198,1.85,6.567,4.875,7.968
			c2.602,1.325,5.725,1.021,7.207-1.079c0.907-1.344,0.791-3.085,0.212-4.695c-0.579-1.608-1.618-3.084-2.697-4.353
			c-2.37-2.574-4.992-4.977-7.938-6.794C107.164,39.579,104.928,42.191,104.774,45.39z"/>
	</g>
</g>
<g>
	<g>
		<defs>
			<polygon id="SVGID_43_" points="48.874,-1 202.374,20.964 180.012,171.731 26.511,149.766 			"/>
		</defs>
		<clipPath id="SVGID_44_">
			<use xlink:href="#SVGID_43_"  overflow="visible"/>
		</clipPath>
		<path clip-path="url(#SVGID_44_)" fill="#0EB89A" d="M116.497,31.694c-0.153,3.198,1.851,6.566,4.877,7.967
			c2.601,1.326,5.722,1.022,7.205-1.079c0.906-1.344,0.792-3.084,0.212-4.694c-0.577-1.608-1.617-3.085-2.697-4.353
			c-2.37-2.575-4.992-4.978-7.939-6.794C118.849,26.09,116.826,28.741,116.497,31.694z"/>
	</g>
</g>
<g>
	<g>
		<defs>
			<polygon id="SVGID_45_" points="48.874,-1 202.374,20.964 180.012,171.731 26.511,149.766 			"/>
		</defs>
		<clipPath id="SVGID_46_">
			<use xlink:href="#SVGID_45_"  overflow="visible"/>
		</clipPath>
		<path clip-path="url(#SVGID_46_)" fill="#0EB89A" d="M149.038,58.017c1.599-0.359,2.717-1.666,3.622-3.01
			c0.732-1.59,1.04-3.255,1.137-4.959c0.192-3.406-0.04-6.89-0.945-10.277c-1.812,2.688-5.185,3.161-7.516,5.111
			c-2.368,2.158-3.313,6.076-2.119,9.085C144.065,56.484,146.513,58.642,149.038,58.017z"/>
	</g>
</g>
<g>
	<g>
		<defs>
			<polygon id="SVGID_47_" points="48.874,-1 202.374,20.964 180.012,171.731 26.511,149.766 			"/>
		</defs>
		<clipPath id="SVGID_48_">
			<use xlink:href="#SVGID_47_"  overflow="visible"/>
		</clipPath>
		<path clip-path="url(#SVGID_48_)" fill="#0EB89A" d="M184.007,88.818c1.434-0.864,2.717-2.177,3.789-3.521
			c2.535-3.184,4.105-6.31,5.267-9.083c-3.021,1.277-6.031-0.435-9.142-0.025c-3.107,0.41-6.132,3.186-7.025,6.266
			c-0.831,2.66,0.229,5.806,2.479,6.769C180.592,89.826,182.36,89.651,184.007,88.818z"/>
	</g>
</g>
<g>
	<g>
		<defs>
			<polygon id="SVGID_49_" points="48.874,-1 202.374,20.964 180.012,171.731 26.511,149.766 			"/>
		</defs>
		<clipPath id="SVGID_50_">
			<use xlink:href="#SVGID_49_"  overflow="visible"/>
		</clipPath>
		<path clip-path="url(#SVGID_50_)" fill="#0EB89A" d="M176.9,73.992c1.429,0.632,3.229,0.248,4.664-0.616
			c1.432-0.864,2.717-2.177,3.789-3.521c2.14-2.688,3.914-5.854,5.264-9.083c-3.019,1.279-6.031-0.435-9.14-0.025
			c-3.109,0.41-6.133,3.185-7.025,6.265C173.592,69.883,174.648,73.027,176.9,73.992z"/>
	</g>
</g>
<g>
	<g>
		<defs>
			<polygon id="SVGID_51_" points="48.874,-1 202.374,20.964 180.012,171.731 26.511,149.766 			"/>
		</defs>
		<clipPath id="SVGID_52_">
			<use xlink:href="#SVGID_51_"  overflow="visible"/>
		</clipPath>
		<path clip-path="url(#SVGID_52_)" fill="#0EB89A" d="M164.285,107.229c-0.308-3.066-2.815-6.094-6.091-7.323
			c-2.678-0.909-5.877-0.189-6.975,2.196c-0.695,1.381-0.366,3.16,0.464,4.599c0.828,1.438,2.119,2.744,3.448,3.843
			c2.66,2.194,5.57,4.219,8.847,5.449C162.743,113.191,164.594,110.296,164.285,107.229z"/>
	</g>
</g>
<g>
	<g>
		<defs>
			<polygon id="SVGID_53_" points="48.874,-1 202.374,20.964 180.012,171.731 26.511,149.766 			"/>
		</defs>
		<clipPath id="SVGID_54_">
			<use xlink:href="#SVGID_53_"  overflow="visible"/>
		</clipPath>
		<path clip-path="url(#SVGID_54_)" fill="#0EB89A" d="M185.564,101.154c-0.416-3.053-3.028-5.993-6.346-7.11
			c-2.709-0.814-5.882,0.015-6.893,2.436c-0.645,1.404-0.253,3.171,0.626,4.58c0.88,1.408,2.215,2.67,3.586,3.722
			c2.735,2.102,5.716,4.024,9.033,5.142C184.453,107.197,185.982,104.209,185.564,101.154z"/>
	</g>
</g>
<g>
	<g>
		<defs>
			<polygon id="SVGID_55_" points="48.874,-1 202.374,20.964 180.012,171.731 26.511,149.766 			"/>
		</defs>
		<clipPath id="SVGID_56_">
			<use xlink:href="#SVGID_55_"  overflow="visible"/>
		</clipPath>
		<path clip-path="url(#SVGID_56_)" fill="#0EB89A" d="M121.891,53.043c-0.192,3.407,0.039,6.889,0.945,10.277
			c1.81-2.688,5.183-3.161,7.514-5.111c2.37-2.158,3.313-6.076,2.118-9.085c-0.846-2.517-3.508-4.713-6.032-4.088
			c-1.597,0.361-2.716,1.667-3.41,3.048C122.332,49.466,121.987,51.339,121.891,53.043z"/>
	</g>
</g>
<g>
	<g>
		<defs>
			<polygon id="SVGID_57_" points="48.874,-1 202.374,20.964 180.012,171.731 26.511,149.766 			"/>
		</defs>
		<clipPath id="SVGID_58_">
			<use xlink:href="#SVGID_57_"  overflow="visible"/>
		</clipPath>
		<path clip-path="url(#SVGID_58_)" fill="#0EB89A" d="M93.176,60.182c1.079,1.268,2.409,2.366,3.989,3.293
			c2.95,1.816,6.398,3.292,9.789,3.898c-1.656-2.877-0.441-5.887-1.176-9.029c-0.77-2.934-3.988-5.659-7.206-6.018
			c-2.757-0.493-5.86,0.89-6.496,3.143C91.558,57.097,92.136,58.706,93.176,60.182z"/>
	</g>
</g>
<g>
	<g>
		<defs>
			<polygon id="SVGID_59_" points="48.874,-1 202.374,20.964 180.012,171.731 26.511,149.766 			"/>
		</defs>
		<clipPath id="SVGID_60_">
			<use xlink:href="#SVGID_59_"  overflow="visible"/>
		</clipPath>
		<path clip-path="url(#SVGID_60_)" fill="#0EB89A" d="M92.288,29.382c2.948,1.816,6.397,3.292,9.79,3.898
			c-1.657-2.876-0.442-5.886-1.176-9.027c-0.771-2.934-3.99-5.66-7.208-6.018c-2.755-0.493-5.858,0.889-6.494,3.142
			c-0.482,1.419,0.058,3.236,1.137,4.504C89.377,27.356,90.708,28.454,92.288,29.382z"/>
	</g>
</g>
<g>
	<g>
		<defs>
			<polygon id="SVGID_61_" points="48.874,-1 202.374,20.964 180.012,171.731 26.511,149.766 			"/>
		</defs>
		<clipPath id="SVGID_62_">
			<use xlink:href="#SVGID_61_"  overflow="visible"/>
		</clipPath>
		<path clip-path="url(#SVGID_62_)" fill="#0EB89A" d="M86.938,59.063c-1.194-3.009-4.452-5.526-7.748-5.469
			c-3.044-0.113-6.05,1.931-9.152,0.946c1.619,3.085,3.738,5.83,6.109,8.404c1.292,1.306,2.622,2.404,4.24,3.123
			c1.619,0.719,3.353,0.814,4.818-0.001C87.383,64.95,87.787,61.581,86.938,59.063z"/>
	</g>
</g>
<g>
	<g>
		<defs>
			<polygon id="SVGID_63_" points="48.874,-1 202.374,20.964 180.012,171.731 26.511,149.766 			"/>
		</defs>
		<clipPath id="SVGID_64_">
			<use xlink:href="#SVGID_63_"  overflow="visible"/>
		</clipPath>
		<path clip-path="url(#SVGID_64_)" fill="#0EB89A" d="M69.5,30.379c0.578,1.608,1.657,2.877,3.313,3.387
			c2.467,0.87,5.01-1.042,6.359-3.597c1.426-2.971,0.848-6.946-1.35-9.274c-2.196-2.327-5.588-2.933-7.033-5.771
			c-0.478,1.228-1.875,12.714-1.889,10.201C68.805,27.029,68.921,28.77,69.5,30.379z"/>
	</g>
</g>
<g>
	<g>
		<defs>
			<polygon id="SVGID_65_" points="48.874,-1 202.374,20.964 180.012,171.731 26.511,149.766 			"/>
		</defs>
		<clipPath id="SVGID_66_">
			<use xlink:href="#SVGID_65_"  overflow="visible"/>
		</clipPath>
		<path clip-path="url(#SVGID_66_)" fill="#0EB89A" d="M62.1,65.699c2.177-1.117,2.793-4.448,1.733-7.003
			c-1.195-3.009-4.452-5.526-7.747-5.469c-3.044-0.114-6.05,1.931-9.153,0.947c1.58,3.293,3.7,6.037,6.109,8.402
			c1.291,1.306,2.621,2.404,4.24,3.124C58.901,66.418,60.636,66.513,62.1,65.699z"/>
	</g>
</g>
<g>
	<g>
		<defs>
			<polygon id="SVGID_67_" points="48.874,-1 202.374,20.964 180.012,171.731 26.511,149.766 			"/>
		</defs>
		<clipPath id="SVGID_68_">
			<use xlink:href="#SVGID_67_"  overflow="visible"/>
		</clipPath>
		<path clip-path="url(#SVGID_68_)" fill="#0EB89A" d="M84.075,83.923c1.291,1.306,2.621,2.404,4.239,3.122
			c1.619,0.72,3.353,0.814,4.818,0c2.176-1.117,2.793-4.448,1.734-7.002c-1.195-3.01-0.211-4.634-3.506-4.577
			c-3.044-0.114-10.292,1.038-13.395,0.055C79.333,78.776,81.454,81.519,84.075,83.923z"/>
	</g>
</g>
<g>
	<g>
		<defs>
			<polygon id="SVGID_69_" points="48.874,-1 202.374,20.964 180.012,171.731 26.511,149.766 			"/>
		</defs>
		<clipPath id="SVGID_70_">
			<use xlink:href="#SVGID_69_"  overflow="visible"/>
		</clipPath>
		<path clip-path="url(#SVGID_70_)" fill="#0EB89A" d="M83.517,49.993c2.216,1.039,5.319-0.342,6.841-2.652
			c1.318-2.062,2.439-6.003,0-9.463c-1.735-2.461-5.01-3.69-6.206-6.699c-1.677,3.141-2.717,6.396-3.333,9.728
			c-0.308,1.665-0.405,3.368-0.077,5.147C81.321,47.665,82.111,49.311,83.517,49.993z"/>
	</g>
</g>
<g>
	<g>
		<defs>
			<polygon id="SVGID_71_" points="48.874,-1 202.374,20.964 180.012,171.731 26.511,149.766 			"/>
		</defs>
		<clipPath id="SVGID_72_">
			<use xlink:href="#SVGID_71_"  overflow="visible"/>
		</clipPath>
		<path clip-path="url(#SVGID_72_)" fill="#0EB89A" d="M62.34,49.854c2.217,1.042,5.319-0.34,6.841-2.651
			c1.85-2.896,1.908-6.756,0-9.462c-1.735-2.461-5.011-3.691-6.206-6.7c-1.676,3.142-2.414,7.29-3.03,10.621
			c-0.309,1.667-0.708,2.477-0.38,4.256C60.144,47.526,60.934,49.173,62.34,49.854z"/>
	</g>
</g>
<g>
	<g>
		<defs>
			<polygon id="SVGID_73_" points="48.874,-1 202.374,20.964 180.012,171.731 26.511,149.766 			"/>
		</defs>
		<clipPath id="SVGID_74_">
			<use xlink:href="#SVGID_73_"  overflow="visible"/>
		</clipPath>
		<path clip-path="url(#SVGID_74_)" fill="#0EB89A" d="M72.288,82.515c1.061-2.177-0.385-5.016-2.736-6.512
			c-2.948-1.816-7.091-1.91-9.636,0.001c-2.505,1.704-3.757,4.922-6.82,6.094c3.198,1.646,6.514,2.669,10.116,3.312
			c1.697,0.303,3.431,0.398,5.242,0.075C69.918,84.672,71.595,83.896,72.288,82.515z"/>
	</g>
</g>
<g>
	<g>
		<defs>
			<polygon id="SVGID_75_" points="48.874,-1 202.374,20.964 180.012,171.731 26.511,149.766 			"/>
		</defs>
		<clipPath id="SVGID_76_">
			<use xlink:href="#SVGID_75_"  overflow="visible"/>
		</clipPath>
		<path clip-path="url(#SVGID_76_)" fill="#0EB89A" d="M82.609,93.55c-2.948-1.817-6.879-1.873-9.635,0
			c-2.505,1.704-3.757,4.922-6.822,6.095c3.2,1.646,6.514,2.668,10.118,3.312c1.695,0.303,3.43,0.398,5.242,0.076
			c1.599-0.36,3.314-1.345,4.008-2.727C86.406,97.884,84.961,95.045,82.609,93.55z"/>
	</g>
</g>
<g>
	<g>
		<defs>
			<polygon id="SVGID_77_" points="36.265,28.134 194.748,72.388 105.208,199.956 28.77,177.563 			"/>
		</defs>
		<clipPath id="SVGID_78_">
			<use xlink:href="#SVGID_77_"  overflow="visible"/>
		</clipPath>
		<path clip-path="url(#SVGID_78_)" fill="#E87628" d="M171.933,83.286L171.933,83.286c-1.273,1.322-2.971,2.581-4.426,3.661
			c-1.666,1.049-3.334,2.098-5.183,2.906c-0.939,0.509-1.849,0.807-2.788,1.316l-2.575,1.347c-0.909,0.298-1.819,0.597-2.759,1.106
			c-0.907,0.298-1.816,0.597-2.726,0.895c-1.816,0.597-3.847,1.165-5.847,1.52l-2.908,0.653c-0.909,0.298-1.998,0.355-2.907,0.654
			c-2,0.355-3.999,0.71-5.998,1.066l-2.877,0.443l-1.544,0.207l-1.545,0.206l-5.937,0.646l-6.118,0.403l-0.454,0.149
			c0.73-2.046,1.642-3.85,2.885-4.96c0,0,26.579-16.151,35.548-19.798c8.999-3.858-18.299,6.811-30.478,10.208
			c0,0-11.879,5.806-14.191,14.292l-0.212-0.031c-0.783-3.556-5.993-22.812-18.061-33.598c0,0,10.762,12.317,11.943,32.495
			c-1.452-0.426-2.692-0.821-4.146-1.247c-0.816-0.333-1.845-0.698-2.663-1.031c-0.817-0.333-1.848-0.698-2.632-1.243
			c-0.786-0.544-1.815-0.908-2.602-1.453c-0.787-0.544-1.574-1.089-2.572-1.664c-0.786-0.544-1.572-1.089-2.328-1.844l-2.269-2.264
			c-1.057-1.66-2.145-3.107-3.021-4.526c-1.088-1.449-2.146-3.108-3.233-4.557c-1.087-1.447-2.357-3.138-3.445-4.586
			c-0.544-0.725-1.3-1.479-1.844-2.204c-0.544-0.724-1.3-1.479-2.056-2.234l0,0c-0.393-0.272-0.817-0.333-1.303,0.026
			c-0.273,0.39-0.333,0.812,0.028,1.294c0.576,0.513,1.332,1.269,1.875,1.993c0.544,0.725,1.3,1.479,1.875,1.993
			c1.088,1.449,2.387,2.928,3.477,4.377c1.087,1.447,2.145,3.108,3.232,4.556c1.058,1.659,2.146,3.108,2.991,4.736
			c0,0,0,0,0.182,0.241l2.269,2.267c0.755,0.754,1.542,1.299,2.297,2.054c1.543,1.299,3.328,2.418,5.113,3.538
			c0.787,0.544,1.816,0.909,2.814,1.484c0.999,0.575,1.815,0.908,2.845,1.273c1.635,0.668,1.603,0.88,3.48,1.366
			c0.061,9.471-2.405,16.217-8.305,28.5c-1.21,2.52-9.863,9.755-11.423,12.384c0,0-3.614-3.463-9.111-7.048
			c-1.948-1.271-3.036-3.455-5.109-4.618c-0.399-0.223-3.019-1.159-4.236-3.227c-1.517-2.576-1.731-6.399-2.901-6.831
			c-1.182-0.437-0.027,7.191-1.441,6.711c-9.877-3.354-24.138-7.415-24.73-7.031c-0.228,0.146,9.339,3.626,16.954,6.557
			c0.838,0.322-3.255,2.646-2.424,2.977c1.232,0.489,5.291-1.986,6.452-1.493c4.126,1.749,7.604,3.466,8.962,4.776
			c1.314,1.27,4.676,4.164,5.964,5.41c1.295,1.254,2.283,2.551,3.01,3.732c1.458,2.364,1.877,4.272,1.659,4.469
			c-0.333,0.303-3.044-0.764-6.355-1.25c-2.656-0.391-6.594-2.631-9.693-3.146c-6.236-1.041-25.729-0.502-25.753,0
			c-0.017,0.33,7.678,0.83,14.894,1.695c1.369,0.164,3.521,6.742,4.8,6.934c2.461,0.369,0.601-6.141,2.121-5.654
			c2.029,0.646,10.015,2.32,11.95,2.926c4.632,1.449,7.948,4.301,8.664,4.605c0.285,0.121-5.273,1.27-6.654,3.916
			c-0.685,1.314-1.779,4.092-2.919,7.24c-0.172,0.479-2.367,1.938-4.678,2.145c-3.294,0.291-7.03-0.707-7.272,0
			c-0.406,1.18,9.896,3.775,9.529,4.898c-1.362,4.176-2.056,13.695-2.056,13.98c0,2.811,1.39-6.217,4.04-12.141
			c1.767-3.951,4.796-7.662,5.77-8.875c1.127-1.406,2.261-2.77,3.167-3.748c0.768-0.832,1.567-1.631,2.356-2.363
			c2.491-2.319,4.89-3.994,5.969-3.992c0.458,0,0.211,11.772,1.22,18.979c0.178,1.271-5.438,6.08-5.15,7.246
			c0.422,1.703,6.735-3.207,7.646-0.664c2.732,7.627,6.829,17.127,7.242,17.102c0.298-0.02-0.724-3.182-1.737-7.602
			c-0.266-1.162,5.208,0.02,4.966-1.284c-0.106-0.573-1.196-0.728-2.665-1.599c-1.468-0.872-3.557-3.763-3.635-4.366
			c-1.056-8.083-1.93-17.011-1.415-19.242c0.939-4.061,1.404-9.225,2.271-9.422c4.828-1.103,10.001-2.682,10.088-7.834
			c9.374-21.841,8.084-18.962,12.562-38.111l2.854-2.721l1.819-0.883l3.9-0.257l6.148-0.615l1.334-0.236
			c-0.697,0.33-1.002,0.93-1.336,1.742c-0.639,1.414-0.248,3.191,0.629,4.608c0.875,1.419,2.205,2.686,3.568,3.745
			c2.721,2.116,5.686,4.052,8.986,5.176c-1.086-2.954,0.432-5.961,0.014-9.033c-0.42-3.072-3.02-6.031-6.318-7.156
			c-0.213-0.029-0.213-0.029-0.426-0.061c2-0.355,3.787-0.742,5.787-1.097c0.908-0.299,1.998-0.355,2.908-0.654l2.938-0.864
			c2.029-0.565,3.848-1.163,5.877-1.729c0.91-0.298,1.848-0.808,2.971-1.075c0.906-0.299,1.848-0.808,2.756-1.106l2.789-1.317
			c0.938-0.509,1.879-1.018,2.816-1.527c1.879-1.018,3.548-2.067,5.242-3.326c1.699-1.26,3.188-2.551,4.732-4.262
			c0.271-0.391,0.334-0.812-0.027-1.295C172.843,82.988,172.207,82.896,171.933,83.286z"/>
	</g>
</g>
<path fill="#0EB89A" d="M104.403,14.197c-0.264,3.743,0.932,6.564,3.845,8.093c2.502,1.455,5.568,0.991,7.1-1.517
	c0.935-1.603,1.718-3.57,0.918-5.26c-0.913-1.934-0.672-1.42-1.685-2.863c-1.02-1.336-2.058-3.716-2.55-4.58
	c-0.353-0.619-1.785-3.435-1.719-5.605C110.162,7.384,104.831,10.735,104.403,14.197z"/>
</svg>
